<svg width="122" height="42.5" viewBox="0 0 244 85" fill="none" xmlns="http://www.w3.org/2000/svg">
<path d="M230.327 0C237.878 0 244 6.12179 244 13.6729V70.4658C244 78.0167 237.878 84.1377 230.327 84.1377H13.6729C6.12189 84.1377 0.000163848 78.0167 0 70.4658V13.6729C0 6.12179 6.12179 0 13.6729 0H230.327ZM93.29 33.7217C90.7996 33.7217 88.578 34.2942 86.626 35.4385C84.7077 36.5491 83.1926 38.0974 82.082 40.083C80.9716 42.0685 80.417 44.357 80.417 46.9482C80.417 49.5396 80.9554 51.8279 82.0322 53.8135C83.1428 55.7991 84.6407 57.3645 86.5254 58.5088C88.4437 59.6193 90.6312 60.1748 93.0879 60.1748C95.0062 60.1748 96.7057 59.9056 98.1865 59.3672C99.7009 58.8288 100.996 58.0544 102.073 57.0449C103.184 56.0353 104.093 54.8569 104.8 53.5107L99.8018 51.3906C99.2296 52.5012 98.4393 53.4104 97.4297 54.1172C96.4201 54.7903 95.1408 55.1269 93.5928 55.127C92.2466 55.127 91.0178 54.8236 89.9072 54.2178C88.7967 53.612 87.9045 52.7541 87.2314 51.6436C86.6629 50.6771 86.3364 49.5661 86.248 48.3115H105.305C105.305 45.2826 104.766 42.6739 103.689 40.4863C102.646 38.2988 101.216 36.6326 99.3984 35.4883C97.5812 34.3104 95.5448 33.7217 93.29 33.7217ZM111.503 26.4521V34.3271H107.312V39.1738H111.503V52.4512C111.503 54.9414 112.193 56.8599 113.572 58.2061C114.986 59.5185 117.022 60.1747 119.681 60.1748C120.556 60.1748 121.432 60.0065 122.307 59.6699C123.182 59.367 124.057 58.9123 124.932 58.3066L122.861 54.0156C122.357 54.3858 121.902 54.6388 121.498 54.7734C121.094 54.9079 120.724 54.9746 120.388 54.9746C119.311 54.9746 118.486 54.6722 117.914 54.0664C117.376 53.4606 117.106 52.5685 117.106 51.3906V39.1738H123.922V34.3271H117.106V26.4521H111.503ZM138.852 33.7217C136.933 33.7217 135.284 34.0079 133.904 34.5801C132.558 35.1522 131.43 35.9263 130.521 36.9023C129.647 37.8446 128.94 38.871 128.401 39.9814L133.349 41.7988C133.988 40.722 134.762 39.9316 135.671 39.4268C136.58 38.9219 137.64 38.6689 138.852 38.6689C140.164 38.6689 141.207 38.9886 141.981 39.6279C142.789 40.2337 143.362 41.1258 143.698 42.3037C143.895 42.9127 144.038 43.603 144.13 44.374H137.741C134.578 44.374 132.104 45.0636 130.32 46.4434C128.57 47.8232 127.695 49.8261 127.695 52.4512C127.695 54.9079 128.52 56.8091 130.169 58.1553C131.852 59.5014 134.207 60.1748 137.236 60.1748C140.265 60.1748 142.47 59.199 143.85 57.2471C144.025 56.9953 144.187 56.7311 144.34 56.4561L144.506 59.5693H149.705L149.856 45.7363C149.856 43.2123 149.453 41.0581 148.646 39.2744C147.871 37.4909 146.66 36.1278 145.011 35.1855C143.362 34.2095 141.308 33.7217 138.852 33.7217ZM172.191 23.625C168.725 23.625 165.662 24.4163 163.003 25.998C160.344 27.5462 158.24 29.7003 156.692 32.46C155.178 35.1859 154.421 38.3331 154.421 41.9004C154.421 45.4675 155.178 48.6311 156.692 51.3906C158.241 54.1503 160.361 56.3044 163.054 57.8525C165.746 59.4007 168.843 60.1748 172.343 60.1748C175.809 60.1748 178.855 59.4005 181.479 57.8525C184.138 56.3044 186.209 54.1503 187.689 51.3906C189.204 48.631 189.961 45.4676 189.961 41.9004C189.961 38.3331 189.204 35.186 187.689 32.46C186.209 29.7003 184.122 27.5462 181.43 25.998C178.771 24.4163 175.691 23.625 172.191 23.625ZM207.842 23.625C203.837 23.6251 200.757 24.5504 198.604 26.4014C196.45 28.2187 195.373 30.777 195.373 34.0752C195.373 35.8251 195.743 37.3394 196.483 38.6182C197.257 39.897 198.301 40.9575 199.613 41.7988C200.959 42.6402 202.457 43.2803 204.106 43.7178L208.448 44.8281C210.265 45.2993 211.712 45.9727 212.789 46.8477C213.866 47.689 214.405 48.7827 214.405 50.1289C214.405 51.6096 213.765 52.8042 212.486 53.7129C211.207 54.6215 209.475 55.0761 207.287 55.0762C205.402 55.0425 203.82 54.5546 202.541 53.6123C201.262 52.6701 200.404 51.5761 199.967 50.3311L194.212 52.0977C194.515 53.1409 195.036 54.151 195.776 55.127C196.55 56.0693 197.51 56.9271 198.654 57.7012C199.832 58.4752 201.179 59.081 202.693 59.5186C204.241 59.956 205.941 60.1748 207.792 60.1748C210.518 60.1748 212.823 59.7373 214.708 58.8623C216.626 57.9873 218.074 56.7756 219.05 55.2275C220.026 53.6794 220.514 51.8952 220.514 49.876C220.514 47.5876 219.639 45.5008 217.889 43.6162C216.139 41.7315 213.681 40.402 210.518 39.6279L206.176 38.5684C204.695 38.1982 203.518 37.6597 202.643 36.9531C201.801 36.2127 201.381 35.1856 201.381 33.873C201.381 32.2577 201.919 30.9956 202.996 30.0869C204.107 29.1784 205.621 28.7237 207.539 28.7236C209.39 28.7236 210.938 29.1612 212.184 30.0361C213.429 30.9111 214.304 32.0221 214.809 33.3682L220.463 31.5508C219.924 30.0365 219.1 28.6905 217.989 27.5127C216.879 26.3012 215.465 25.3586 213.749 24.6855C212.066 23.9788 210.097 23.625 207.842 23.625ZM21.9229 24.2314V29.582H32.7764V59.5693H38.6318V29.582H49.4863V24.2314H21.9229ZM53.3359 24.2314V59.5693H58.9902V46.3926L58.9961 45.9512C59.0553 43.7762 59.5584 42.0895 60.5049 40.8906C61.5482 39.6117 63.0289 38.9888 64.9473 39.0225C66.0242 39.0225 66.9667 39.2412 67.7744 39.6787C68.6157 40.1162 69.272 40.8904 69.7432 42.001C70.2143 43.0779 70.4502 44.6262 70.4502 46.6455V59.5693H76.1035V45.333C76.1035 42.6069 75.7165 40.4025 74.9424 38.7197C74.202 37.0033 73.1083 35.7413 71.6611 34.9336C70.214 34.1259 68.4973 33.7217 66.5117 33.7217C64.5263 33.7217 62.8103 34.2269 61.3633 35.2363C60.4428 35.8571 59.652 36.6689 58.9902 37.6709V24.2314H53.3359ZM144.253 49.1191L144.24 49.5557C144.181 50.5604 143.916 51.4754 143.445 52.2998C142.94 53.242 142.217 53.9992 141.274 54.5713C140.332 55.1433 139.221 55.4297 137.942 55.4297C136.529 55.4296 135.419 55.1603 134.611 54.6221C133.837 54.05 133.45 53.2756 133.45 52.2998C133.45 51.1557 133.904 50.2806 134.812 49.6748C135.721 49.0354 137.304 48.7148 139.559 48.7148H144.253V49.1191ZM172.191 29.0273C174.513 29.0274 176.55 29.5818 178.3 30.6924C180.083 31.7693 181.48 33.2844 182.489 35.2363C183.499 37.1883 184.004 39.4099 184.004 41.9004C184.004 44.4244 183.499 46.6624 182.489 48.6143C181.513 50.5325 180.15 52.0466 178.4 53.1572C176.65 54.2678 174.631 54.8232 172.343 54.8232C170.021 54.8232 167.95 54.2678 166.133 53.1572C164.349 52.0466 162.936 50.5324 161.893 48.6143C160.883 46.6624 160.378 44.4244 160.378 41.9004C160.378 39.3763 160.883 37.1547 161.893 35.2363C162.936 33.2843 164.333 31.7693 166.083 30.6924C167.867 29.5819 169.903 29.0273 172.191 29.0273ZM93.1387 38.5684C94.1481 38.5684 95.1072 38.8034 96.0156 39.2744C96.9579 39.7119 97.7321 40.3854 98.3379 41.2939C98.8368 42.0146 99.1297 42.9067 99.2178 43.9697H86.6074C86.7052 42.9067 87.0306 42.0146 87.585 41.2939C88.2581 40.3853 89.0998 39.7119 90.1094 39.2744C91.1189 38.8033 92.1291 38.5684 93.1387 38.5684Z" fill="black"/>
</svg>
